<?xml version="1.0" encoding="us-ascii" standalone="no"?><svg xmlns="http://www.w3.org/2000/svg" xmlns:xlink="http://www.w3.org/1999/xlink" contentStyleType="text/css" height="431px" preserveAspectRatio="none" style="width:1155px;height:431px;background:#FFFFFF;" version="1.1" viewBox="0 0 1155 431" width="1155px" zoomAndPan="magnify"><defs/><g><rect fill="none" height="75.9316" style="stroke:#000000;stroke-width:1.5;" width="579.5" x="570" y="244.6621"/><line style="stroke:#181818;stroke-width:0.5;stroke-dasharray:5.0,5.0;" x1="32" x2="32" y1="36.4883" y2="396.2148"/><line style="stroke:#181818;stroke-width:0.5;stroke-dasharray:5.0,5.0;" x1="391" x2="391" y1="36.4883" y2="396.2148"/><line style="stroke:#181818;stroke-width:0.5;stroke-dasharray:5.0,5.0;" x1="639" x2="639" y1="36.4883" y2="396.2148"/><line style="stroke:#181818;stroke-width:0.5;stroke-dasharray:5.0,5.0;" x1="825.5" x2="825.5" y1="36.4883" y2="396.2148"/><line style="stroke:#181818;stroke-width:0.5;stroke-dasharray:5.0,5.0;" x1="935.5" x2="935.5" y1="36.4883" y2="396.2148"/><line style="stroke:#181818;stroke-width:0.5;stroke-dasharray:5.0,5.0;" x1="1078.5" x2="1078.5" y1="36.4883" y2="396.2148"/><rect fill="#E2E2F0" height="30.4883" rx="2.5" ry="2.5" style="stroke:#181818;stroke-width:0.5;" width="54" x="5" y="5"/><text fill="#000000" font-family="sans-serif" font-size="14" lengthAdjust="spacing" textLength="40" x="12" y="25.5352">Client</text><rect fill="#E2E2F0" height="30.4883" rx="2.5" ry="2.5" style="stroke:#181818;stroke-width:0.5;" width="54" x="5" y="395.2148"/><text fill="#000000" font-family="sans-serif" font-size="14" lengthAdjust="spacing" textLength="40" x="12" y="415.75">Client</text><rect fill="#E2E2F0" height="30.4883" rx="2.5" ry="2.5" style="stroke:#181818;stroke-width:0.5;" width="140" x="321" y="5"/><text fill="#000000" font-family="sans-serif" font-size="14" lengthAdjust="spacing" textLength="126" x="328" y="25.5352">BookingController</text><rect fill="#E2E2F0" height="30.4883" rx="2.5" ry="2.5" style="stroke:#181818;stroke-width:0.5;" width="140" x="321" y="395.2148"/><text fill="#000000" font-family="sans-serif" font-size="14" lengthAdjust="spacing" textLength="126" x="328" y="415.75">BookingController</text><rect fill="#E2E2F0" height="30.4883" rx="2.5" ry="2.5" style="stroke:#181818;stroke-width:0.5;" width="118" x="580" y="5"/><text fill="#000000" font-family="sans-serif" font-size="14" lengthAdjust="spacing" textLength="104" x="587" y="25.5352">BookingService</text><rect fill="#E2E2F0" height="30.4883" rx="2.5" ry="2.5" style="stroke:#181818;stroke-width:0.5;" width="118" x="580" y="395.2148"/><text fill="#000000" font-family="sans-serif" font-size="14" lengthAdjust="spacing" textLength="104" x="587" y="415.75">BookingService</text><rect fill="#E2E2F0" height="30.4883" rx="2.5" ry="2.5" style="stroke:#181818;stroke-width:0.5;" width="57" x="797.5" y="5"/><text fill="#000000" font-family="sans-serif" font-size="14" lengthAdjust="spacing" textLength="43" x="804.5" y="25.5352">JwtUtil</text><rect fill="#E2E2F0" height="30.4883" rx="2.5" ry="2.5" style="stroke:#181818;stroke-width:0.5;" width="57" x="797.5" y="395.2148"/><text fill="#000000" font-family="sans-serif" font-size="14" lengthAdjust="spacing" textLength="43" x="804.5" y="415.75">JwtUtil</text><rect fill="#E2E2F0" height="30.4883" rx="2.5" ry="2.5" style="stroke:#181818;stroke-width:0.5;" width="143" x="864.5" y="5"/><text fill="#000000" font-family="sans-serif" font-size="14" lengthAdjust="spacing" textLength="129" x="871.5" y="25.5352">BookingRepository</text><rect fill="#E2E2F0" height="30.4883" rx="2.5" ry="2.5" style="stroke:#181818;stroke-width:0.5;" width="143" x="864.5" y="395.2148"/><text fill="#000000" font-family="sans-serif" font-size="14" lengthAdjust="spacing" textLength="129" x="871.5" y="415.75">BookingRepository</text><rect fill="#E2E2F0" height="30.4883" rx="2.5" ry="2.5" style="stroke:#181818;stroke-width:0.5;" width="122" x="1017.5" y="5"/><text fill="#000000" font-family="sans-serif" font-size="14" lengthAdjust="spacing" textLength="108" x="1024.5" y="25.5352">BookingMapper</text><rect fill="#E2E2F0" height="30.4883" rx="2.5" ry="2.5" style="stroke:#181818;stroke-width:0.5;" width="122" x="1017.5" y="395.2148"/><text fill="#000000" font-family="sans-serif" font-size="14" lengthAdjust="spacing" textLength="108" x="1024.5" y="415.75">BookingMapper</text><polygon fill="#181818" points="379,79.1094,389,83.1094,379,87.1094,383,83.1094" style="stroke:#181818;stroke-width:1.0;"/><line style="stroke:#181818;stroke-width:1.0;" x1="32" x2="385" y1="83.1094" y2="83.1094"/><text fill="#000000" font-family="sans-serif" font-size="13" font-weight="bold" lengthAdjust="spacing" textLength="9" x="39" y="70.7119">1</text><text fill="#000000" font-family="sans-serif" font-size="13" lengthAdjust="spacing" textLength="120" x="52" y="63.0566">GET /api/bookings</text><text fill="#000000" font-family="sans-serif" font-size="13" lengthAdjust="spacing" textLength="140" x="52" y="78.3672">(Authorization header)</text><polygon fill="#181818" points="627,108.4199,637,112.4199,627,116.4199,631,112.4199" style="stroke:#181818;stroke-width:1.0;"/><line style="stroke:#181818;stroke-width:1.0;" x1="391" x2="633" y1="112.4199" y2="112.4199"/><text fill="#000000" font-family="sans-serif" font-size="13" font-weight="bold" lengthAdjust="spacing" textLength="9" x="398" y="107.6777">2</text><text fill="#000000" font-family="sans-serif" font-size="13" lengthAdjust="spacing" textLength="211" x="411" y="107.6777">getUserBookingHistory(jwtToken)</text><polygon fill="#181818" points="814,137.7305,824,141.7305,814,145.7305,818,141.7305" style="stroke:#181818;stroke-width:1.0;"/><line style="stroke:#181818;stroke-width:1.0;" x1="639" x2="820" y1="141.7305" y2="141.7305"/><text fill="#000000" font-family="sans-serif" font-size="13" font-weight="bold" lengthAdjust="spacing" textLength="9" x="646" y="136.9883">3</text><text fill="#000000" font-family="sans-serif" font-size="13" lengthAdjust="spacing" textLength="150" x="659" y="136.9883">extractUserId(jwtToken)</text><polygon fill="#181818" points="650,167.041,640,171.041,650,175.041,646,171.041" style="stroke:#181818;stroke-width:1.0;"/><line style="stroke:#181818;stroke-width:1.0;stroke-dasharray:2.0,2.0;" x1="644" x2="825" y1="171.041" y2="171.041"/><text fill="#000000" font-family="sans-serif" font-size="13" font-weight="bold" lengthAdjust="spacing" textLength="9" x="656" y="166.2988">4</text><text fill="#000000" font-family="sans-serif" font-size="13" lengthAdjust="spacing" textLength="39" x="669" y="166.2988">userId</text><polygon fill="#181818" points="924,196.3516,934,200.3516,924,204.3516,928,200.3516" style="stroke:#181818;stroke-width:1.0;"/><line style="stroke:#181818;stroke-width:1.0;" x1="639" x2="930" y1="200.3516" y2="200.3516"/><text fill="#000000" font-family="sans-serif" font-size="13" font-weight="bold" lengthAdjust="spacing" textLength="9" x="646" y="195.6094">5</text><text fill="#000000" font-family="sans-serif" font-size="13" lengthAdjust="spacing" textLength="126" x="659" y="195.6094">findByUserId(userId)</text><polygon fill="#181818" points="650,225.6621,640,229.6621,650,233.6621,646,229.6621" style="stroke:#181818;stroke-width:1.0;"/><line style="stroke:#181818;stroke-width:1.0;stroke-dasharray:2.0,2.0;" x1="644" x2="935" y1="229.6621" y2="229.6621"/><text fill="#000000" font-family="sans-serif" font-size="13" font-weight="bold" lengthAdjust="spacing" textLength="9" x="656" y="224.9199">6</text><text fill="#000000" font-family="sans-serif" font-size="13" lengthAdjust="spacing" textLength="94" x="669" y="224.9199">List&lt;Booking&gt;</text><path d="M570,244.6621 L644,244.6621 L644,251.9727 L634,261.9727 L570,261.9727 L570,244.6621 " fill="#EEEEEE" style="stroke:#000000;stroke-width:1.5;"/><rect fill="none" height="75.9316" style="stroke:#000000;stroke-width:1.5;" width="579.5" x="570" y="244.6621"/><text fill="#000000" font-family="sans-serif" font-size="13" font-weight="bold" lengthAdjust="spacing" textLength="29" x="585" y="258.2305">loop</text><text fill="#000000" font-family="sans-serif" font-size="11" font-weight="bold" lengthAdjust="spacing" textLength="105" x="659" y="257.2969">[For each Booking]</text><polygon fill="#181818" points="1066.5,279.2832,1076.5,283.2832,1066.5,287.2832,1070.5,283.2832" style="stroke:#181818;stroke-width:1.0;"/><line style="stroke:#181818;stroke-width:1.0;" x1="639" x2="1072.5" y1="283.2832" y2="283.2832"/><text fill="#000000" font-family="sans-serif" font-size="13" font-weight="bold" lengthAdjust="spacing" textLength="9" x="646" y="278.541">7</text><text fill="#000000" font-family="sans-serif" font-size="13" lengthAdjust="spacing" textLength="95" x="659" y="278.541">toDto(Booking)</text><polygon fill="#181818" points="650,308.5938,640,312.5938,650,316.5938,646,312.5938" style="stroke:#181818;stroke-width:1.0;"/><line style="stroke:#181818;stroke-width:1.0;stroke-dasharray:2.0,2.0;" x1="644" x2="1077.5" y1="312.5938" y2="312.5938"/><text fill="#000000" font-family="sans-serif" font-size="13" font-weight="bold" lengthAdjust="spacing" textLength="9" x="656" y="307.8516">8</text><text fill="#000000" font-family="sans-serif" font-size="13" lengthAdjust="spacing" textLength="79" x="669" y="307.8516">BookingDTO</text><polygon fill="#181818" points="402,344.9043,392,348.9043,402,352.9043,398,348.9043" style="stroke:#181818;stroke-width:1.0;"/><line style="stroke:#181818;stroke-width:1.0;stroke-dasharray:2.0,2.0;" x1="396" x2="638" y1="348.9043" y2="348.9043"/><text fill="#000000" font-family="sans-serif" font-size="13" font-weight="bold" lengthAdjust="spacing" textLength="9" x="408" y="344.1621">9</text><text fill="#000000" font-family="sans-serif" font-size="13" lengthAdjust="spacing" textLength="197" x="421" y="344.1621">Map&lt;bookingId, BookingDTO&gt;</text><polygon fill="#181818" points="43,374.2148,33,378.2148,43,382.2148,39,378.2148" style="stroke:#181818;stroke-width:1.0;"/><line style="stroke:#181818;stroke-width:1.0;stroke-dasharray:2.0,2.0;" x1="37" x2="390" y1="378.2148" y2="378.2148"/><text fill="#000000" font-family="sans-serif" font-size="13" font-weight="bold" lengthAdjust="spacing" textLength="18" x="49" y="373.4727">10</text><text fill="#000000" font-family="sans-serif" font-size="13" lengthAdjust="spacing" textLength="313" x="71" y="373.4727">ResponseEntity&lt;Map&lt;bookingId, BookingDTO&gt;&gt;</text><!--SRC=[TP5FJyCm3CNl-HJMJgl4j7irLM9_W24G4cmtBbbhjh0IHudB69-UDebeYaPFJl9xpy-kR9Xqyx53Auoqh4fbf6OOBMg5caSW7OHo-3mdEYgzNv1cItMDDf2_nulq2zfFLQ97Optaxa-yPLLx8DONZPxHa5DCzkpH_dYHVfJ6n82X52AC19CYYPp3xMe3KsdKT1U4xbMFhni-a5NVaXLfEA2iq6QYLtKUSPOSziXRXpRslLEkopH-F_66ZgWp4S5E4yVB0R_OojBhrbN2HW0cQOF6KwbFFtiERqfNytDq2cWcUc1ezT2ccyMaXQY93DoG1PJb0UArWFPBUeNjvS2qP1f7AFDKU1fsYC1oyoHG9w7_RBsLpkB2rzLLeYe6Q-vK_g_bxSpEa7QuqgpuFFlVeFW1]--></g></svg>