<?xml version="1.0" encoding="us-ascii" standalone="no"?><svg xmlns="http://www.w3.org/2000/svg" xmlns:xlink="http://www.w3.org/1999/xlink" contentStyleType="text/css" height="1723px" preserveAspectRatio="none" style="width:2179px;height:1723px;background:#FFFFFF;" version="1.1" viewBox="0 0 2179 1723" width="2179px" zoomAndPan="magnify"><defs/><g><!--cluster com--><g id="cluster_com"><path d="M8.5,6 L39.5,6 A3.75,3.75 0 0 1 42,8.5 L49,28.4883 L2169.5,28.4883 A2.5,2.5 0 0 1 2172,30.9883 L2172,1590.5 A2.5,2.5 0 0 1 2169.5,1593 L8.5,1593 A2.5,2.5 0 0 1 6,1590.5 L6,8.5 A2.5,2.5 0 0 1 8.5,6 " fill="none" style="stroke:#000000;stroke-width:1.5;"/><line style="stroke:#000000;stroke-width:1.5;" x1="6" x2="49" y1="28.4883" y2="28.4883"/><text fill="#000000" font-family="sans-serif" font-size="14" font-weight="bold" lengthAdjust="spacing" textLength="30" x="10" y="21.5352">com</text></g><!--cluster team11--><g id="cluster_team11"><path d="M32.5,49 L87.5,49 A3.75,3.75 0 0 1 90,51.5 L97,71.4883 L2145.5,71.4883 A2.5,2.5 0 0 1 2148,73.9883 L2148,1566.5 A2.5,2.5 0 0 1 2145.5,1569 L32.5,1569 A2.5,2.5 0 0 1 30,1566.5 L30,51.5 A2.5,2.5 0 0 1 32.5,49 " fill="none" style="stroke:#000000;stroke-width:1.5;"/><line style="stroke:#000000;stroke-width:1.5;" x1="30" x2="97" y1="71.4883" y2="71.4883"/><text fill="#000000" font-family="sans-serif" font-size="14" font-weight="bold" lengthAdjust="spacing" textLength="54" x="34" y="64.5352">team11</text></g><!--cluster bookingservice--><g id="cluster_bookingservice"><path d="M56.5,92 L166.5,92 A3.75,3.75 0 0 1 169,94.5 L176,114.4883 L2121.5,114.4883 A2.5,2.5 0 0 1 2124,116.9883 L2124,1542.5 A2.5,2.5 0 0 1 2121.5,1545 L56.5,1545 A2.5,2.5 0 0 1 54,1542.5 L54,94.5 A2.5,2.5 0 0 1 56.5,92 " fill="none" style="stroke:#000000;stroke-width:1.5;"/><line style="stroke:#000000;stroke-width:1.5;" x1="54" x2="176" y1="114.4883" y2="114.4883"/><text fill="#000000" font-family="sans-serif" font-size="14" font-weight="bold" lengthAdjust="spacing" textLength="109" x="58" y="107.5352">bookingservice</text></g><!--cluster config--><g id="cluster_config"><path d="M1046,135 L1092,135 A3.75,3.75 0 0 1 1094.5,137.5 L1101.5,157.4883 L1262,157.4883 A2.5,2.5 0 0 1 1264.5,159.9883 L1264.5,281.5 A2.5,2.5 0 0 1 1262,284 L1046,284 A2.5,2.5 0 0 1 1043.5,281.5 L1043.5,137.5 A2.5,2.5 0 0 1 1046,135 " fill="none" style="stroke:#000000;stroke-width:1.5;"/><line style="stroke:#000000;stroke-width:1.5;" x1="1043.5" x2="1101.5" y1="157.4883" y2="157.4883"/><text fill="#000000" font-family="sans-serif" font-size="14" font-weight="bold" lengthAdjust="spacing" textLength="45" x="1047.5" y="150.5352">config</text></g><!--cluster controller--><g id="cluster_controller"><path d="M80.5,1198 L151.5,1198 A3.75,3.75 0 0 1 154,1200.5 L161,1220.4883 L758.5,1220.4883 A2.5,2.5 0 0 1 761,1222.9883 L761,1443.5 A2.5,2.5 0 0 1 758.5,1446 L80.5,1446 A2.5,2.5 0 0 1 78,1443.5 L78,1200.5 A2.5,2.5 0 0 1 80.5,1198 " fill="none" style="stroke:#000000;stroke-width:1.5;"/><line style="stroke:#000000;stroke-width:1.5;" x1="78" x2="161" y1="1220.4883" y2="1220.4883"/><text fill="#000000" font-family="sans-serif" font-size="14" font-weight="bold" lengthAdjust="spacing" textLength="70" x="82" y="1213.5352">controller</text></g><!--cluster dto--><g id="cluster_dto"><path d="M1884.5,1080 L1909.5,1080 A3.75,3.75 0 0 1 1912,1082.5 L1919,1102.4883 L2097.5,1102.4883 A2.5,2.5 0 0 1 2100,1104.9883 L2100,1258.5 A2.5,2.5 0 0 1 2097.5,1261 L1884.5,1261 A2.5,2.5 0 0 1 1882,1258.5 L1882,1082.5 A2.5,2.5 0 0 1 1884.5,1080 " fill="none" style="stroke:#000000;stroke-width:1.5;"/><line style="stroke:#000000;stroke-width:1.5;" x1="1882" x2="1919" y1="1102.4883" y2="1102.4883"/><text fill="#000000" font-family="sans-serif" font-size="14" font-weight="bold" lengthAdjust="spacing" textLength="24" x="1886" y="1095.5352">dto</text></g><!--cluster entity--><g id="cluster_entity"><path d="M1884.5,776 L1927.5,776 A3.75,3.75 0 0 1 1930,778.5 L1937,798.4883 L2097.5,798.4883 A2.5,2.5 0 0 1 2100,800.9883 L2100,954.5 A2.5,2.5 0 0 1 2097.5,957 L1884.5,957 A2.5,2.5 0 0 1 1882,954.5 L1882,778.5 A2.5,2.5 0 0 1 1884.5,776 " fill="none" style="stroke:#000000;stroke-width:1.5;"/><line style="stroke:#000000;stroke-width:1.5;" x1="1882" x2="1937" y1="798.4883" y2="798.4883"/><text fill="#000000" font-family="sans-serif" font-size="14" font-weight="bold" lengthAdjust="spacing" textLength="42" x="1886" y="791.5352">entity</text></g><!--cluster event--><g id="cluster_event"><path d="M283,463 L323,463 A3.75,3.75 0 0 1 325.5,465.5 L332.5,485.4883 L1292,485.4883 A2.5,2.5 0 0 1 1294.5,487.9883 L1294.5,575.5 A2.5,2.5 0 0 1 1292,578 L283,578 A2.5,2.5 0 0 1 280.5,575.5 L280.5,465.5 A2.5,2.5 0 0 1 283,463 " fill="none" style="stroke:#000000;stroke-width:1.5;"/><line style="stroke:#000000;stroke-width:1.5;" x1="280.5" x2="332.5" y1="485.4883" y2="485.4883"/><text fill="#000000" font-family="sans-serif" font-size="14" font-weight="bold" lengthAdjust="spacing" textLength="39" x="284.5" y="478.5352">event</text></g><!--cluster exception--><g id="cluster_exception"><path d="M138,308 L208,308 A3.75,3.75 0 0 1 210.5,310.5 L217.5,330.4883 L1368.5,330.4883 A2.5,2.5 0 0 1 1371,332.9883 L1371,436.5 A2.5,2.5 0 0 1 1368.5,439 L138,439 A2.5,2.5 0 0 1 135.5,436.5 L135.5,310.5 A2.5,2.5 0 0 1 138,308 " fill="none" style="stroke:#000000;stroke-width:1.5;"/><line style="stroke:#000000;stroke-width:1.5;" x1="135.5" x2="217.5" y1="330.4883" y2="330.4883"/><text fill="#000000" font-family="sans-serif" font-size="14" font-weight="bold" lengthAdjust="spacing" textLength="69" x="139.5" y="323.5352">exception</text></g><!--cluster mapper--><g id="cluster_mapper"><path d="M1544.5,868 L1599.5,868 A3.75,3.75 0 0 1 1602,870.5 L1609,890.4883 L1846.5,890.4883 A2.5,2.5 0 0 1 1849,892.9883 L1849,996.5 A2.5,2.5 0 0 1 1846.5,999 L1544.5,999 A2.5,2.5 0 0 1 1542,996.5 L1542,870.5 A2.5,2.5 0 0 1 1544.5,868 " fill="none" style="stroke:#000000;stroke-width:1.5;"/><line style="stroke:#000000;stroke-width:1.5;" x1="1542" x2="1609" y1="890.4883" y2="890.4883"/><text fill="#000000" font-family="sans-serif" font-size="14" font-weight="bold" lengthAdjust="spacing" textLength="54" x="1546" y="883.5352">mapper</text></g><!--cluster factory--><g id="cluster_factory"><path d="M928.5,804 L979.5,804 A3.75,3.75 0 0 1 982,806.5 L989,826.4883 L1379.5,826.4883 A2.5,2.5 0 0 1 1382,828.9883 L1382,932.5 A2.5,2.5 0 0 1 1379.5,935 L928.5,935 A2.5,2.5 0 0 1 926,932.5 L926,806.5 A2.5,2.5 0 0 1 928.5,804 " fill="none" style="stroke:#000000;stroke-width:1.5;"/><line style="stroke:#000000;stroke-width:1.5;" x1="926" x2="989" y1="826.4883" y2="826.4883"/><text fill="#000000" font-family="sans-serif" font-size="14" font-weight="bold" lengthAdjust="spacing" textLength="50" x="930" y="819.5352">factory</text></g><!--cluster repository--><g id="cluster_repository"><path d="M976.5,665 L1051.5,665 A3.75,3.75 0 0 1 1054,667.5 L1061,687.4883 L1331.5,687.4883 A2.5,2.5 0 0 1 1334,689.9883 L1334,777.5 A2.5,2.5 0 0 1 1331.5,780 L976.5,780 A2.5,2.5 0 0 1 974,777.5 L974,667.5 A2.5,2.5 0 0 1 976.5,665 " fill="none" style="stroke:#000000;stroke-width:1.5;"/><line style="stroke:#000000;stroke-width:1.5;" x1="974" x2="1061" y1="687.4883" y2="687.4883"/><text fill="#000000" font-family="sans-serif" font-size="14" font-weight="bold" lengthAdjust="spacing" textLength="74" x="978" y="680.5352">repository</text></g><!--cluster service--><g id="cluster_service"><path d="M150,959 L201,959 A3.75,3.75 0 0 1 203.5,961.5 L210.5,981.4883 L1423.5,981.4883 A2.5,2.5 0 0 1 1426,983.9883 L1426,1171.5 A2.5,2.5 0 0 1 1423.5,1174 L150,1174 A2.5,2.5 0 0 1 147.5,1171.5 L147.5,961.5 A2.5,2.5 0 0 1 150,959 " fill="none" style="stroke:#000000;stroke-width:1.5;"/><line style="stroke:#000000;stroke-width:1.5;" x1="147.5" x2="210.5" y1="981.4883" y2="981.4883"/><text fill="#000000" font-family="sans-serif" font-size="14" font-weight="bold" lengthAdjust="spacing" textLength="50" x="151.5" y="974.5352">service</text></g><!--cluster util--><g id="cluster_util"><path d="M162.5,149 L188.5,149 A3.75,3.75 0 0 1 191,151.5 L198,171.4883 L676.5,171.4883 A2.5,2.5 0 0 1 679,173.9883 L679,277.5 A2.5,2.5 0 0 1 676.5,280 L162.5,280 A2.5,2.5 0 0 1 160,277.5 L160,151.5 A2.5,2.5 0 0 1 162.5,149 " fill="none" style="stroke:#000000;stroke-width:1.5;"/><line style="stroke:#000000;stroke-width:1.5;" x1="160" x2="198" y1="171.4883" y2="171.4883"/><text fill="#000000" font-family="sans-serif" font-size="14" font-weight="bold" lengthAdjust="spacing" textLength="25" x="164" y="164.5352">util</text></g><!--cluster service--><g id="cluster_service"><path d="M1072.5,1617 L1123.5,1617 A3.75,3.75 0 0 1 1126,1619.5 L1133,1639.4883 L1235.5,1639.4883 A2.5,2.5 0 0 1 1238,1641.9883 L1238,1713.5 A2.5,2.5 0 0 1 1235.5,1716 L1072.5,1716 A2.5,2.5 0 0 1 1070,1713.5 L1070,1619.5 A2.5,2.5 0 0 1 1072.5,1617 " fill="none" style="stroke:#000000;stroke-width:1.5;"/><line style="stroke:#000000;stroke-width:1.5;" x1="1070" x2="1133" y1="1639.4883" y2="1639.4883"/><text fill="#000000" font-family="sans-serif" font-size="14" font-weight="bold" lengthAdjust="spacing" textLength="50" x="1074" y="1632.5352">service</text></g><!--class BookingServiceApplication--><g id="elem_BookingServiceApplication"><rect codeLine="10" fill="#F1F1F1" height="64.4883" id="BookingServiceApplication" rx="2.5" ry="2.5" style="stroke:#181818;stroke-width:0.5;" width="214" x="312.5" y="1464.76"/><ellipse cx="327.5" cy="1480.76" fill="#ADD1B2" rx="11" ry="11" style="stroke:#181818;stroke-width:1.0;"/><path d="M329.9731,1486.9031 Q329.3921,1487.2019 328.7529,1487.3513 Q328.1138,1487.5007 327.4082,1487.5007 Q324.9014,1487.5007 323.5815,1485.8489 Q322.2617,1484.197 322.2617,1481.0759 Q322.2617,1477.9465 323.5815,1476.2947 Q324.9014,1474.6428 327.4082,1474.6428 Q328.1138,1474.6428 328.7612,1474.7922 Q329.4087,1474.9416 329.9731,1475.2405 L329.9731,1477.9631 Q329.3423,1477.3821 328.7488,1477.1123 Q328.1553,1476.8425 327.5244,1476.8425 Q326.1797,1476.8425 325.4949,1477.9092 Q324.8101,1478.9758 324.8101,1481.0759 Q324.8101,1483.1677 325.4949,1484.2344 Q326.1797,1485.301 327.5244,1485.301 Q328.1553,1485.301 328.7488,1485.0312 Q329.3423,1484.7615 329.9731,1484.1804 Z " fill="#000000"/><text fill="#000000" font-family="sans-serif" font-size="14" lengthAdjust="spacing" textLength="182" x="341.5" y="1486.051">BookingServiceApplication</text><line style="stroke:#181818;stroke-width:0.5;" x1="313.5" x2="525.5" y1="1496.76" y2="1496.76"/><line style="stroke:#181818;stroke-width:0.5;" x1="313.5" x2="525.5" y1="1504.76" y2="1504.76"/><text fill="#000000" font-family="sans-serif" font-size="14" lengthAdjust="spacing" textLength="140" x="318.5" y="1522.2952">+main(String[] args)</text></g><!--class JwtProperties--><g id="elem_JwtProperties"><rect codeLine="17" fill="#F1F1F1" height="97.4648" id="JwtProperties" rx="2.5" ry="2.5" style="stroke:#181818;stroke-width:0.5;" width="189" x="1059.5" y="170.27"/><ellipse cx="1104.75" cy="186.27" fill="#ADD1B2" rx="11" ry="11" style="stroke:#181818;stroke-width:1.0;"/><path d="M1107.2231,192.4131 Q1106.6421,192.7119 1106.0029,192.8613 Q1105.3638,193.0107 1104.6582,193.0107 Q1102.1514,193.0107 1100.8315,191.3589 Q1099.5117,189.707 1099.5117,186.5859 Q1099.5117,183.4565 1100.8315,181.8047 Q1102.1514,180.1528 1104.6582,180.1528 Q1105.3638,180.1528 1106.0112,180.3022 Q1106.6587,180.4516 1107.2231,180.7505 L1107.2231,183.4731 Q1106.5923,182.8921 1105.9988,182.6223 Q1105.4053,182.3525 1104.7744,182.3525 Q1103.4297,182.3525 1102.7449,183.4192 Q1102.0601,184.4858 1102.0601,186.5859 Q1102.0601,188.6777 1102.7449,189.7444 Q1103.4297,190.811 1104.7744,190.811 Q1105.4053,190.811 1105.9988,190.5412 Q1106.5923,190.2715 1107.2231,189.6904 Z " fill="#000000"/><text fill="#000000" font-family="sans-serif" font-size="14" lengthAdjust="spacing" textLength="90" x="1125.25" y="191.561">JwtProperties</text><line style="stroke:#181818;stroke-width:0.5;" x1="1060.5" x2="1247.5" y1="202.27" y2="202.27"/><text fill="#000000" font-family="sans-serif" font-size="14" lengthAdjust="spacing" textLength="102" x="1065.5" y="219.8052">-secret : String</text><line style="stroke:#181818;stroke-width:0.5;" x1="1060.5" x2="1247.5" y1="226.7583" y2="226.7583"/><text fill="#000000" font-family="sans-serif" font-size="14" lengthAdjust="spacing" textLength="138" x="1065.5" y="244.2934">+getSecret() : String</text><text fill="#000000" font-family="sans-serif" font-size="14" lengthAdjust="spacing" textLength="177" x="1065.5" y="260.7817">+setSecret(secret : String)</text></g><!--class HomeController--><g id="elem_HomeController"><rect codeLine="27" fill="#F1F1F1" height="64.4883" id="HomeController" rx="2.5" ry="2.5" style="stroke:#181818;stroke-width:0.5;" width="142" x="348.5" y="1365.76"/><ellipse cx="363.5" cy="1381.76" fill="#ADD1B2" rx="11" ry="11" style="stroke:#181818;stroke-width:1.0;"/><path d="M365.9731,1387.9031 Q365.3921,1388.2019 364.7529,1388.3513 Q364.1138,1388.5007 363.4082,1388.5007 Q360.9014,1388.5007 359.5815,1386.8489 Q358.2617,1385.197 358.2617,1382.0759 Q358.2617,1378.9465 359.5815,1377.2947 Q360.9014,1375.6428 363.4082,1375.6428 Q364.1138,1375.6428 364.7612,1375.7922 Q365.4087,1375.9416 365.9731,1376.2405 L365.9731,1378.9631 Q365.3423,1378.3821 364.7488,1378.1123 Q364.1553,1377.8425 363.5244,1377.8425 Q362.1797,1377.8425 361.4949,1378.9092 Q360.8101,1379.9758 360.8101,1382.0759 Q360.8101,1384.1677 361.4949,1385.2344 Q362.1797,1386.301 363.5244,1386.301 Q364.1553,1386.301 364.7488,1386.0312 Q365.3423,1385.7615 365.9731,1385.1804 Z " fill="#000000"/><text fill="#000000" font-family="sans-serif" font-size="14" lengthAdjust="spacing" textLength="110" x="377.5" y="1387.051">HomeController</text><line style="stroke:#181818;stroke-width:0.5;" x1="349.5" x2="489.5" y1="1397.76" y2="1397.76"/><line style="stroke:#181818;stroke-width:0.5;" x1="349.5" x2="489.5" y1="1405.76" y2="1405.76"/><text fill="#000000" font-family="sans-serif" font-size="14" lengthAdjust="spacing" textLength="113" x="354.5" y="1423.2952">+home() : String</text></g><!--class BookingController--><g id="elem_BookingController"><rect codeLine="30" fill="#F1F1F1" height="97.4648" id="BookingController" rx="2.5" ry="2.5" style="stroke:#181818;stroke-width:0.5;" width="651" x="94" y="1233.27"/><ellipse cx="352.25" cy="1249.27" fill="#ADD1B2" rx="11" ry="11" style="stroke:#181818;stroke-width:1.0;"/><path d="M354.7231,1255.4131 Q354.1421,1255.7119 353.5029,1255.8613 Q352.8638,1256.0107 352.1582,1256.0107 Q349.6514,1256.0107 348.3315,1254.3589 Q347.0117,1252.707 347.0117,1249.5859 Q347.0117,1246.4565 348.3315,1244.8047 Q349.6514,1243.1528 352.1582,1243.1528 Q352.8638,1243.1528 353.5112,1243.3022 Q354.1587,1243.4516 354.7231,1243.7505 L354.7231,1246.4731 Q354.0923,1245.8921 353.4988,1245.6223 Q352.9053,1245.3525 352.2744,1245.3525 Q350.9297,1245.3525 350.2449,1246.4192 Q349.5601,1247.4858 349.5601,1249.5859 Q349.5601,1251.6777 350.2449,1252.7444 Q350.9297,1253.811 352.2744,1253.811 Q352.9053,1253.811 353.4988,1253.5412 Q354.0923,1253.2715 354.7231,1252.6904 Z " fill="#000000"/><text fill="#000000" font-family="sans-serif" font-size="14" lengthAdjust="spacing" textLength="126" x="372.75" y="1254.561">BookingController</text><line style="stroke:#181818;stroke-width:0.5;" x1="95" x2="744" y1="1265.27" y2="1265.27"/><text fill="#000000" font-family="sans-serif" font-size="14" lengthAdjust="spacing" textLength="289" x="100" y="1282.8052">-bookingService : BookingServiceInterface</text><line style="stroke:#181818;stroke-width:0.5;" x1="95" x2="744" y1="1289.7583" y2="1289.7583"/><text fill="#000000" font-family="sans-serif" font-size="14" lengthAdjust="spacing" textLength="571" x="100" y="1307.2934">+getBookings(authHeader : String) : ResponseEntity&lt;Map&lt;Integer, BookingDTO&gt;&gt;</text><text fill="#000000" font-family="sans-serif" font-size="14" lengthAdjust="spacing" textLength="639" x="100" y="1323.7817">+createBooking(booking : BookingDTO, authHeader : String) : ResponseEntity&lt;BookingDTO&gt;</text></g><!--class BookingDTO--><g id="elem_BookingDTO"><rect codeLine="40" fill="#F1F1F1" height="130.4414" id="BookingDTO" rx="2.5" ry="2.5" style="stroke:#181818;stroke-width:0.5;" width="186" x="1898" y="1114.78"/><ellipse cx="1943.75" cy="1130.78" fill="#ADD1B2" rx="11" ry="11" style="stroke:#181818;stroke-width:1.0;"/><path d="M1946.2231,1136.9231 Q1945.6421,1137.2219 1945.0029,1137.3713 Q1944.3638,1137.5207 1943.6582,1137.5207 Q1941.1514,1137.5207 1939.8315,1135.8689 Q1938.5117,1134.217 1938.5117,1131.0959 Q1938.5117,1127.9665 1939.8315,1126.3147 Q1941.1514,1124.6628 1943.6582,1124.6628 Q1944.3638,1124.6628 1945.0112,1124.8122 Q1945.6587,1124.9616 1946.2231,1125.2605 L1946.2231,1127.9831 Q1945.5923,1127.4021 1944.9988,1127.1323 Q1944.4053,1126.8625 1943.7744,1126.8625 Q1942.4297,1126.8625 1941.7449,1127.9292 Q1941.0601,1128.9958 1941.0601,1131.0959 Q1941.0601,1133.1877 1941.7449,1134.2544 Q1942.4297,1135.321 1943.7744,1135.321 Q1944.4053,1135.321 1944.9988,1135.0512 Q1945.5923,1134.7815 1946.2231,1134.2004 Z " fill="#000000"/><text fill="#000000" font-family="sans-serif" font-size="14" lengthAdjust="spacing" textLength="86" x="1964.25" y="1136.071">BookingDTO</text><line style="stroke:#181818;stroke-width:0.5;" x1="1899" x2="2083" y1="1146.78" y2="1146.78"/><text fill="#000000" font-family="sans-serif" font-size="14" lengthAdjust="spacing" textLength="139" x="1904" y="1164.3152">-bookingId : Integer</text><text fill="#000000" font-family="sans-serif" font-size="14" lengthAdjust="spacing" textLength="104" x="1904" y="1180.8034">-userId : String</text><text fill="#000000" font-family="sans-serif" font-size="14" lengthAdjust="spacing" textLength="174" x="1904" y="1197.2917">-bookingDate : LocalDate</text><text fill="#000000" font-family="sans-serif" font-size="14" lengthAdjust="spacing" textLength="106" x="1904" y="1213.78">-details : String</text><line style="stroke:#181818;stroke-width:0.5;" x1="1899" x2="2083" y1="1220.7331" y2="1220.7331"/><text fill="#000000" font-family="sans-serif" font-size="14" lengthAdjust="spacing" textLength="173" x="1904" y="1238.2683">+getBookingId() : Integer</text></g><!--class Booking--><g id="elem_Booking"><rect codeLine="53" fill="#F1F1F1" height="130.4414" id="Booking" rx="2.5" ry="2.5" style="stroke:#181818;stroke-width:0.5;" width="186" x="1898" y="810.78"/><ellipse cx="1958.75" cy="826.78" fill="#ADD1B2" rx="11" ry="11" style="stroke:#181818;stroke-width:1.0;"/><path d="M1961.2231,832.9231 Q1960.6421,833.2219 1960.0029,833.3713 Q1959.3638,833.5207 1958.6582,833.5207 Q1956.1514,833.5207 1954.8315,831.8689 Q1953.5117,830.217 1953.5117,827.0959 Q1953.5117,823.9665 1954.8315,822.3147 Q1956.1514,820.6628 1958.6582,820.6628 Q1959.3638,820.6628 1960.0112,820.8122 Q1960.6587,820.9616 1961.2231,821.2605 L1961.2231,823.9831 Q1960.5923,823.4021 1959.9988,823.1323 Q1959.4053,822.8625 1958.7744,822.8625 Q1957.4297,822.8625 1956.7449,823.9292 Q1956.0601,824.9958 1956.0601,827.0959 Q1956.0601,829.1877 1956.7449,830.2544 Q1957.4297,831.321 1958.7744,831.321 Q1959.4053,831.321 1959.9988,831.0512 Q1960.5923,830.7815 1961.2231,830.2004 Z " fill="#000000"/><text fill="#000000" font-family="sans-serif" font-size="14" lengthAdjust="spacing" textLength="56" x="1979.25" y="832.071">Booking</text><line style="stroke:#181818;stroke-width:0.5;" x1="1899" x2="2083" y1="842.78" y2="842.78"/><text fill="#000000" font-family="sans-serif" font-size="14" lengthAdjust="spacing" textLength="139" x="1904" y="860.3152">-bookingId : Integer</text><text fill="#000000" font-family="sans-serif" font-size="14" lengthAdjust="spacing" textLength="104" x="1904" y="876.8034">-userId : String</text><text fill="#000000" font-family="sans-serif" font-size="14" lengthAdjust="spacing" textLength="174" x="1904" y="893.2917">-bookingDate : LocalDate</text><text fill="#000000" font-family="sans-serif" font-size="14" lengthAdjust="spacing" textLength="106" x="1904" y="909.78">-details : String</text><line style="stroke:#181818;stroke-width:0.5;" x1="1899" x2="2083" y1="916.7331" y2="916.7331"/><text fill="#000000" font-family="sans-serif" font-size="14" lengthAdjust="spacing" textLength="173" x="1904" y="934.2683">+getBookingId() : Integer</text></g><!--class BookingEventPublisherInterface--><g id="elem_BookingEventPublisherInterface"><rect codeLine="66" fill="#F1F1F1" height="64.4883" id="BookingEventPublisherInterface" rx="2.5" ry="2.5" style="stroke:#181818;stroke-width:0.5;" width="249" x="1029.5" y="497.76"/><ellipse cx="1044.5" cy="513.76" fill="#B4A7E5" rx="11" ry="11" style="stroke:#181818;stroke-width:1.0;"/><path d="M1040.9277,510.0251 L1040.9277,507.8669 L1048.3071,507.8669 L1048.3071,510.0251 L1045.8418,510.0251 L1045.8418,518.1018 L1048.3071,518.1018 L1048.3071,520.26 L1040.9277,520.26 L1040.9277,518.1018 L1043.3931,518.1018 L1043.3931,510.0251 Z " fill="#000000"/><text fill="#000000" font-family="sans-serif" font-size="14" font-style="italic" lengthAdjust="spacing" textLength="217" x="1058.5" y="519.051">BookingEventPublisherInterface</text><line style="stroke:#181818;stroke-width:0.5;" x1="1030.5" x2="1277.5" y1="529.76" y2="529.76"/><line style="stroke:#181818;stroke-width:0.5;" x1="1030.5" x2="1277.5" y1="537.76" y2="537.76"/><text fill="#000000" font-family="sans-serif" font-size="14" lengthAdjust="spacing" textLength="234" x="1035.5" y="555.2952">+publishEvent(booking : Booking)</text></g><!--class BookingEventPublisher--><g id="elem_BookingEventPublisher"><rect codeLine="69" fill="#F1F1F1" height="64.4883" id="BookingEventPublisher" rx="2.5" ry="2.5" style="stroke:#181818;stroke-width:0.5;" width="246" x="296.5" y="497.76"/><ellipse cx="337.15" cy="513.76" fill="#ADD1B2" rx="11" ry="11" style="stroke:#181818;stroke-width:1.0;"/><path d="M339.6231,519.9031 Q339.0421,520.2019 338.4029,520.3513 Q337.7638,520.5007 337.0582,520.5007 Q334.5514,520.5007 333.2315,518.8489 Q331.9117,517.197 331.9117,514.0759 Q331.9117,510.9465 333.2315,509.2947 Q334.5514,507.6428 337.0582,507.6428 Q337.7638,507.6428 338.4112,507.7922 Q339.0587,507.9416 339.6231,508.2405 L339.6231,510.9631 Q338.9923,510.3821 338.3988,510.1123 Q337.8053,509.8425 337.1744,509.8425 Q335.8297,509.8425 335.1449,510.9092 Q334.4601,511.9758 334.4601,514.0759 Q334.4601,516.1677 335.1449,517.2344 Q335.8297,518.301 337.1744,518.301 Q337.8053,518.301 338.3988,518.0312 Q338.9923,517.7615 339.6231,517.1804 Z " fill="#000000"/><text fill="#000000" font-family="sans-serif" font-size="14" lengthAdjust="spacing" textLength="157" x="356.85" y="519.051">BookingEventPublisher</text><line style="stroke:#181818;stroke-width:0.5;" x1="297.5" x2="541.5" y1="529.76" y2="529.76"/><line style="stroke:#181818;stroke-width:0.5;" x1="297.5" x2="541.5" y1="537.76" y2="537.76"/><text fill="#000000" font-family="sans-serif" font-size="14" lengthAdjust="spacing" textLength="234" x="302.5" y="555.2952">+publishEvent(booking : Booking)</text></g><!--class BookingException--><g id="elem_BookingException"><rect codeLine="78" fill="#F1F1F1" height="80.9766" id="BookingException" rx="2.5" ry="2.5" style="stroke:#181818;stroke-width:0.5;" width="402" x="953" y="342.51"/><ellipse cx="1087.75" cy="358.51" fill="#ADD1B2" rx="11" ry="11" style="stroke:#181818;stroke-width:1.0;"/><path d="M1090.2231,364.6531 Q1089.6421,364.9519 1089.0029,365.1013 Q1088.3638,365.2507 1087.6582,365.2507 Q1085.1514,365.2507 1083.8315,363.5989 Q1082.5117,361.947 1082.5117,358.8259 Q1082.5117,355.6965 1083.8315,354.0447 Q1085.1514,352.3928 1087.6582,352.3928 Q1088.3638,352.3928 1089.0112,352.5422 Q1089.6587,352.6916 1090.2231,352.9905 L1090.2231,355.7131 Q1089.5923,355.1321 1088.9988,354.8623 Q1088.4053,354.5925 1087.7744,354.5925 Q1086.4297,354.5925 1085.7449,355.6592 Q1085.0601,356.7258 1085.0601,358.8259 Q1085.0601,360.9177 1085.7449,361.9844 Q1086.4297,363.051 1087.7744,363.051 Q1088.4053,363.051 1088.9988,362.7812 Q1089.5923,362.5115 1090.2231,361.9304 Z " fill="#000000"/><text fill="#000000" font-family="sans-serif" font-size="14" lengthAdjust="spacing" textLength="124" x="1108.25" y="363.801">BookingException</text><line style="stroke:#181818;stroke-width:0.5;" x1="954" x2="1354" y1="374.51" y2="374.51"/><line style="stroke:#181818;stroke-width:0.5;" x1="954" x2="1354" y1="382.51" y2="382.51"/><text fill="#000000" font-family="sans-serif" font-size="14" lengthAdjust="spacing" textLength="258" x="959" y="400.0452">+BookingException(message : String)</text><text fill="#000000" font-family="sans-serif" font-size="14" lengthAdjust="spacing" textLength="390" x="959" y="416.5334">+BookingException(message : String, cause : Throwable)</text></g><!--class GlobalExceptionHandler--><g id="elem_GlobalExceptionHandler"><rect codeLine="82" fill="#F1F1F1" height="64.4883" id="GlobalExceptionHandler" rx="2.5" ry="2.5" style="stroke:#181818;stroke-width:0.5;" width="536" x="151.5" y="348.76"/><ellipse cx="332.25" cy="364.76" fill="#ADD1B2" rx="11" ry="11" style="stroke:#181818;stroke-width:1.0;"/><path d="M334.7231,370.9031 Q334.1421,371.2019 333.5029,371.3513 Q332.8638,371.5007 332.1582,371.5007 Q329.6514,371.5007 328.3315,369.8489 Q327.0117,368.197 327.0117,365.0759 Q327.0117,361.9465 328.3315,360.2947 Q329.6514,358.6428 332.1582,358.6428 Q332.8638,358.6428 333.5112,358.7922 Q334.1587,358.9416 334.7231,359.2405 L334.7231,361.9631 Q334.0923,361.3821 333.4988,361.1123 Q332.9053,360.8425 332.2744,360.8425 Q330.9297,360.8425 330.2449,361.9092 Q329.5601,362.9758 329.5601,365.0759 Q329.5601,367.1677 330.2449,368.2344 Q330.9297,369.301 332.2744,369.301 Q332.9053,369.301 333.4988,369.0312 Q334.0923,368.7615 334.7231,368.1804 Z " fill="#000000"/><text fill="#000000" font-family="sans-serif" font-size="14" lengthAdjust="spacing" textLength="166" x="352.75" y="370.051">GlobalExceptionHandler</text><line style="stroke:#181818;stroke-width:0.5;" x1="152.5" x2="686.5" y1="380.76" y2="380.76"/><line style="stroke:#181818;stroke-width:0.5;" x1="152.5" x2="686.5" y1="388.76" y2="388.76"/><text fill="#000000" font-family="sans-serif" font-size="14" lengthAdjust="spacing" textLength="524" x="157.5" y="406.2952">+handleBookingException(ex : BookingException) : ResponseEntity&lt;String&gt;</text></g><!--class BookingMapper--><g id="elem_BookingMapper"><rect codeLine="91" fill="#F1F1F1" height="80.9766" id="BookingMapper" rx="2.5" ry="2.5" style="stroke:#181818;stroke-width:0.5;" width="275" x="1558" y="902.51"/><ellipse cx="1637.25" cy="918.51" fill="#B4A7E5" rx="11" ry="11" style="stroke:#181818;stroke-width:1.0;"/><path d="M1633.6777,914.7751 L1633.6777,912.6169 L1641.0571,912.6169 L1641.0571,914.7751 L1638.5918,914.7751 L1638.5918,922.8518 L1641.0571,922.8518 L1641.0571,925.01 L1633.6777,925.01 L1633.6777,922.8518 L1636.1431,922.8518 L1636.1431,914.7751 Z " fill="#000000"/><text fill="#000000" font-family="sans-serif" font-size="14" font-style="italic" lengthAdjust="spacing" textLength="108" x="1657.75" y="923.801">BookingMapper</text><line style="stroke:#181818;stroke-width:0.5;" x1="1559" x2="1832" y1="934.51" y2="934.51"/><line style="stroke:#181818;stroke-width:0.5;" x1="1559" x2="1832" y1="942.51" y2="942.51"/><text fill="#000000" font-family="sans-serif" font-size="14" lengthAdjust="spacing" textLength="262" x="1564" y="960.0452">+toEntity(dto : BookingDTO) : Booking</text><text fill="#000000" font-family="sans-serif" font-size="14" lengthAdjust="spacing" textLength="263" x="1564" y="976.5334">+toDto(entity : Booking) : BookingDTO</text></g><!--class BookingFactory--><g id="elem_BookingFactory"><rect codeLine="100" fill="#F1F1F1" height="80.9766" id="BookingFactory" rx="2.5" ry="2.5" style="stroke:#181818;stroke-width:0.5;" width="424" x="942" y="838.51"/><ellipse cx="1096.75" cy="854.51" fill="#ADD1B2" rx="11" ry="11" style="stroke:#181818;stroke-width:1.0;"/><path d="M1099.2231,860.6531 Q1098.6421,860.9519 1098.0029,861.1013 Q1097.3638,861.2507 1096.6582,861.2507 Q1094.1514,861.2507 1092.8315,859.5989 Q1091.5117,857.947 1091.5117,854.8259 Q1091.5117,851.6965 1092.8315,850.0447 Q1094.1514,848.3928 1096.6582,848.3928 Q1097.3638,848.3928 1098.0112,848.5422 Q1098.6587,848.6916 1099.2231,848.9905 L1099.2231,851.7131 Q1098.5923,851.1321 1097.9988,850.8623 Q1097.4053,850.5925 1096.7744,850.5925 Q1095.4297,850.5925 1094.7449,851.6592 Q1094.0601,852.7258 1094.0601,854.8259 Q1094.0601,856.9177 1094.7449,857.9844 Q1095.4297,859.051 1096.7744,859.051 Q1097.4053,859.051 1097.9988,858.7812 Q1098.5923,858.5115 1099.2231,857.9304 Z " fill="#000000"/><text fill="#000000" font-family="sans-serif" font-size="14" lengthAdjust="spacing" textLength="106" x="1117.25" y="859.801">BookingFactory</text><line style="stroke:#181818;stroke-width:0.5;" x1="943" x2="1365" y1="870.51" y2="870.51"/><text fill="#000000" font-family="sans-serif" font-size="14" lengthAdjust="spacing" textLength="237" x="948" y="888.0452">-bookingMapper : BookingMapper</text><line style="stroke:#181818;stroke-width:0.5;" x1="943" x2="1365" y1="894.9983" y2="894.9983"/><text fill="#000000" font-family="sans-serif" font-size="14" lengthAdjust="spacing" textLength="412" x="948" y="912.5334">+createBooking(dto : BookingDTO, userId : String) : Booking</text></g><!--class BookingRepository--><g id="elem_BookingRepository"><rect codeLine="110" fill="#F1F1F1" height="64.4883" id="BookingRepository" rx="2.5" ry="2.5" style="stroke:#181818;stroke-width:0.5;" width="328" x="990" y="699.76"/><ellipse cx="1085.25" cy="715.76" fill="#B4A7E5" rx="11" ry="11" style="stroke:#181818;stroke-width:1.0;"/><path d="M1081.6777,712.0251 L1081.6777,709.8669 L1089.0571,709.8669 L1089.0571,712.0251 L1086.5918,712.0251 L1086.5918,720.1018 L1089.0571,720.1018 L1089.0571,722.26 L1081.6777,722.26 L1081.6777,720.1018 L1084.1431,720.1018 L1084.1431,712.0251 Z " fill="#000000"/><text fill="#000000" font-family="sans-serif" font-size="14" font-style="italic" lengthAdjust="spacing" textLength="129" x="1105.75" y="721.051">BookingRepository</text><line style="stroke:#181818;stroke-width:0.5;" x1="991" x2="1317" y1="731.76" y2="731.76"/><line style="stroke:#181818;stroke-width:0.5;" x1="991" x2="1317" y1="739.76" y2="739.76"/><text fill="#000000" font-family="sans-serif" font-size="14" lengthAdjust="spacing" textLength="316" x="996" y="757.2952">+findByUserId(userId : String) : List&lt;Booking&gt;</text></g><!--class BookingServiceInterface--><g id="elem_BookingServiceInterface"><rect codeLine="119" fill="#F1F1F1" height="80.9766" id="BookingServiceInterface" rx="2.5" ry="2.5" style="stroke:#181818;stroke-width:0.5;" width="512" x="898" y="1077.51"/><ellipse cx="1067.75" cy="1093.51" fill="#B4A7E5" rx="11" ry="11" style="stroke:#181818;stroke-width:1.0;"/><path d="M1064.1777,1089.7751 L1064.1777,1087.6169 L1071.5571,1087.6169 L1071.5571,1089.7751 L1069.0918,1089.7751 L1069.0918,1097.8518 L1071.5571,1097.8518 L1071.5571,1100.01 L1064.1777,1100.01 L1064.1777,1097.8518 L1066.6431,1097.8518 L1066.6431,1089.7751 Z " fill="#000000"/><text fill="#000000" font-family="sans-serif" font-size="14" font-style="italic" lengthAdjust="spacing" textLength="164" x="1088.25" y="1098.801">BookingServiceInterface</text><line style="stroke:#181818;stroke-width:0.5;" x1="899" x2="1409" y1="1109.51" y2="1109.51"/><line style="stroke:#181818;stroke-width:0.5;" x1="899" x2="1409" y1="1117.51" y2="1117.51"/><text fill="#000000" font-family="sans-serif" font-size="14" lengthAdjust="spacing" textLength="500" x="904" y="1135.0452">+getUserBookingHistory(jwtToken : String) : Map&lt;Integer, BookingDTO&gt;</text><text fill="#000000" font-family="sans-serif" font-size="14" lengthAdjust="spacing" textLength="462" x="904" y="1151.5334">+createBooking(dto : BookingDTO, jwtToken : String) : BookingDTO</text></g><!--class BookingService--><g id="elem_BookingService"><rect codeLine="123" fill="#F1F1F1" height="163.418" id="BookingService" rx="2.5" ry="2.5" style="stroke:#181818;stroke-width:0.5;" width="512" x="163.5" y="994.29"/><ellipse cx="363.25" cy="1010.29" fill="#ADD1B2" rx="11" ry="11" style="stroke:#181818;stroke-width:1.0;"/><path d="M365.7231,1016.4331 Q365.1421,1016.7319 364.5029,1016.8813 Q363.8638,1017.0307 363.1582,1017.0307 Q360.6514,1017.0307 359.3315,1015.3789 Q358.0117,1013.727 358.0117,1010.6059 Q358.0117,1007.4765 359.3315,1005.8247 Q360.6514,1004.1728 363.1582,1004.1728 Q363.8638,1004.1728 364.5112,1004.3222 Q365.1587,1004.4716 365.7231,1004.7705 L365.7231,1007.4931 Q365.0923,1006.9121 364.4988,1006.6423 Q363.9053,1006.3725 363.2744,1006.3725 Q361.9297,1006.3725 361.2449,1007.4392 Q360.5601,1008.5058 360.5601,1010.6059 Q360.5601,1012.6977 361.2449,1013.7644 Q361.9297,1014.831 363.2744,1014.831 Q363.9053,1014.831 364.4988,1014.5612 Q365.0923,1014.2915 365.7231,1013.7104 Z " fill="#000000"/><text fill="#000000" font-family="sans-serif" font-size="14" lengthAdjust="spacing" textLength="104" x="383.75" y="1015.581">BookingService</text><line style="stroke:#181818;stroke-width:0.5;" x1="164.5" x2="674.5" y1="1026.29" y2="1026.29"/><text fill="#000000" font-family="sans-serif" font-size="14" lengthAdjust="spacing" textLength="279" x="169.5" y="1043.8252">-bookingRepository : BookingRepository</text><text fill="#000000" font-family="sans-serif" font-size="14" lengthAdjust="spacing" textLength="106" x="169.5" y="1060.3134">-jwtUtil : JwtUtil</text><text fill="#000000" font-family="sans-serif" font-size="14" lengthAdjust="spacing" textLength="237" x="169.5" y="1076.8017">-bookingMapper : BookingMapper</text><text fill="#000000" font-family="sans-serif" font-size="14" lengthAdjust="spacing" textLength="338" x="169.5" y="1093.29">-eventPublisher : BookingEventPublisherInterface</text><text fill="#000000" font-family="sans-serif" font-size="14" lengthAdjust="spacing" textLength="233" x="169.5" y="1109.7783">-bookingFactory : BookingFactory</text><line style="stroke:#181818;stroke-width:0.5;" x1="164.5" x2="674.5" y1="1116.7314" y2="1116.7314"/><text fill="#000000" font-family="sans-serif" font-size="14" lengthAdjust="spacing" textLength="500" x="169.5" y="1134.2666">+getUserBookingHistory(jwtToken : String) : Map&lt;Integer, BookingDTO&gt;</text><text fill="#000000" font-family="sans-serif" font-size="14" lengthAdjust="spacing" textLength="462" x="169.5" y="1150.7548">+createBooking(dto : BookingDTO, jwtToken : String) : BookingDTO</text></g><!--class JwtUtil--><g id="elem_JwtUtil"><rect fill="#F1F1F1" height="48" id="JwtUtil" rx="2.5" ry="2.5" style="stroke:#181818;stroke-width:0.5;" width="75" x="1116.5" y="995"/><ellipse cx="1131.5" cy="1011" fill="#ADD1B2" rx="11" ry="11" style="stroke:#181818;stroke-width:1.0;"/><path d="M1133.9731,1017.1431 Q1133.3921,1017.4419 1132.7529,1017.5913 Q1132.1138,1017.7407 1131.4082,1017.7407 Q1128.9014,1017.7407 1127.5815,1016.0889 Q1126.2617,1014.437 1126.2617,1011.3159 Q1126.2617,1008.1865 1127.5815,1006.5347 Q1128.9014,1004.8828 1131.4082,1004.8828 Q1132.1138,1004.8828 1132.7612,1005.0322 Q1133.4087,1005.1816 1133.9731,1005.4805 L1133.9731,1008.2031 Q1133.3423,1007.6221 1132.7488,1007.3523 Q1132.1553,1007.0825 1131.5244,1007.0825 Q1130.1797,1007.0825 1129.4949,1008.1492 Q1128.8101,1009.2158 1128.8101,1011.3159 Q1128.8101,1013.4077 1129.4949,1014.4744 Q1130.1797,1015.541 1131.5244,1015.541 Q1132.1553,1015.541 1132.7488,1015.2712 Q1133.3423,1015.0015 1133.9731,1014.4204 Z " fill="#000000"/><text fill="#000000" font-family="sans-serif" font-size="14" lengthAdjust="spacing" textLength="43" x="1145.5" y="1016.291">JwtUtil</text><line style="stroke:#181818;stroke-width:0.5;" x1="1117.5" x2="1190.5" y1="1027" y2="1027"/><line style="stroke:#181818;stroke-width:0.5;" x1="1117.5" x2="1190.5" y1="1035" y2="1035"/></g><!--class JwtUtil--><g id="elem_JwtUtil"><rect codeLine="143" fill="#F1F1F1" height="80.9766" id="JwtUtil" rx="2.5" ry="2.5" style="stroke:#181818;stroke-width:0.5;" width="487" x="176" y="183.51"/><ellipse cx="393.75" cy="199.51" fill="#ADD1B2" rx="11" ry="11" style="stroke:#181818;stroke-width:1.0;"/><path d="M396.2231,205.6531 Q395.6421,205.9519 395.0029,206.1013 Q394.3638,206.2507 393.6582,206.2507 Q391.1514,206.2507 389.8315,204.5989 Q388.5117,202.947 388.5117,199.8259 Q388.5117,196.6965 389.8315,195.0447 Q391.1514,193.3928 393.6582,193.3928 Q394.3638,193.3928 395.0112,193.5422 Q395.6587,193.6916 396.2231,193.9905 L396.2231,196.7131 Q395.5923,196.1321 394.9988,195.8623 Q394.4053,195.5925 393.7744,195.5925 Q392.4297,195.5925 391.7449,196.6592 Q391.0601,197.7258 391.0601,199.8259 Q391.0601,201.9177 391.7449,202.9844 Q392.4297,204.051 393.7744,204.051 Q394.4053,204.051 394.9988,203.7812 Q395.5923,203.5115 396.2231,202.9304 Z " fill="#000000"/><text fill="#000000" font-family="sans-serif" font-size="14" lengthAdjust="spacing" textLength="43" x="414.25" y="204.801">JwtUtil</text><line style="stroke:#181818;stroke-width:0.5;" x1="177" x2="662" y1="215.51" y2="215.51"/><text fill="#000000" font-family="sans-serif" font-size="14" lengthAdjust="spacing" textLength="109" x="182" y="233.0452">-key : SecretKey</text><line style="stroke:#181818;stroke-width:0.5;" x1="177" x2="662" y1="239.9983" y2="239.9983"/><text fill="#000000" font-family="sans-serif" font-size="14" lengthAdjust="spacing" textLength="475" x="182" y="257.5334">+extractUserId(jwtToken : String) : String &#171;throws BookingException&#187;</text></g><!--class BookingService--><g id="elem_BookingService"><rect fill="#F1F1F1" height="48" id="BookingService" rx="2.5" ry="2.5" style="stroke:#181818;stroke-width:0.5;" width="136" x="1086" y="1652"/><ellipse cx="1101" cy="1668" fill="#ADD1B2" rx="11" ry="11" style="stroke:#181818;stroke-width:1.0;"/><path d="M1103.4731,1674.1431 Q1102.8921,1674.4419 1102.2529,1674.5913 Q1101.6138,1674.7407 1100.9082,1674.7407 Q1098.4014,1674.7407 1097.0815,1673.0889 Q1095.7617,1671.437 1095.7617,1668.3159 Q1095.7617,1665.1865 1097.0815,1663.5347 Q1098.4014,1661.8828 1100.9082,1661.8828 Q1101.6138,1661.8828 1102.2612,1662.0322 Q1102.9087,1662.1816 1103.4731,1662.4805 L1103.4731,1665.2031 Q1102.8423,1664.6221 1102.2488,1664.3523 Q1101.6553,1664.0825 1101.0244,1664.0825 Q1099.6797,1664.0825 1098.9949,1665.1492 Q1098.3101,1666.2158 1098.3101,1668.3159 Q1098.3101,1670.4077 1098.9949,1671.4744 Q1099.6797,1672.541 1101.0244,1672.541 Q1101.6553,1672.541 1102.2488,1672.2712 Q1102.8423,1672.0015 1103.4731,1671.4204 Z " fill="#000000"/><text fill="#000000" font-family="sans-serif" font-size="14" lengthAdjust="spacing" textLength="104" x="1115" y="1673.291">BookingService</text><line style="stroke:#181818;stroke-width:0.5;" x1="1087" x2="1221" y1="1684" y2="1684"/><line style="stroke:#181818;stroke-width:0.5;" x1="1087" x2="1221" y1="1692" y2="1692"/></g><!--link BookingEventPublisher to BookingEventPublisherInterface--><g id="link_BookingEventPublisher_BookingEventPublisherInterface"><path codeLine="72" d="M542.69,530 C677.63,530 875.68,530 1011.24,530 " fill="none" id="BookingEventPublisher-to-BookingEventPublisherInterface" style="stroke:#181818;stroke-width:1.0;stroke-dasharray:7.0,7.0;"/><polygon fill="none" points="1029.24,530,1011.24,524,1011.24,536,1029.24,530" style="stroke:#181818;stroke-width:1.0;"/></g><!--link GlobalExceptionHandler to BookingException--><g id="link_GlobalExceptionHandler_BookingException"><path codeLine="85" d="M687.88,388.26 C747.19,389.18 809.73,389.61 868,389 C895.34,388.71 918.161,388.3799 946.541,387.8599 " fill="none" id="GlobalExceptionHandler-to-BookingException" style="stroke:#181818;stroke-width:1.0;stroke-dasharray:7.0,7.0;"/><polygon fill="#181818" points="952.54,387.75,943.4682,383.9155,947.5408,387.8416,943.6148,391.9142,952.54,387.75" style="stroke:#181818;stroke-width:1.0;"/><text fill="#000000" font-family="sans-serif" font-size="13" lengthAdjust="spacing" textLength="49" x="798" y="385.5684">handles</text></g><!--link GlobalExceptionHandler to BookingException--><g id="link_GlobalExceptionHandler_BookingException"><path codeLine="158" d="M687.89,368.4 C747.19,366.95 809.73,366.47 868,368 C895.37,368.72 918.1962,369.5576 946.5862,370.8476 " fill="none" id="GlobalExceptionHandler-to-BookingException-1" style="stroke:#181818;stroke-width:1.0;"/><polygon fill="#181818" points="952.58,371.12,943.7708,366.7156,947.5852,370.893,943.4077,374.7074,952.58,371.12" style="stroke:#181818;stroke-width:1.0;"/></g><!--link BookingFactory to BookingMapper--><g id="link_BookingFactory_BookingMapper"><path codeLine="104" d="M1366.29,904.06 C1430.68,911.7 1493.7818,919.1932 1551.8618,926.0832 " fill="none" id="BookingFactory-to-BookingMapper" style="stroke:#181818;stroke-width:1.0;stroke-dasharray:7.0,7.0;"/><polygon fill="#181818" points="1557.82,926.79,1549.3539,921.7576,1552.8548,926.201,1548.4115,929.7019,1557.82,926.79" style="stroke:#181818;stroke-width:1.0;"/><text fill="#000000" font-family="sans-serif" font-size="13" lengthAdjust="spacing" textLength="29" x="1469.5" y="910.4484">uses</text></g><!--link BookingService to BookingRepository--><g id="link_BookingService_BookingRepository"><path codeLine="132" d="M562.53,993.8 C656.12,941.38 782.31,873.97 898,823 C947.36,801.25 998.0197,782.6524 1045.1697,766.6124 " fill="none" id="BookingService-to-BookingRepository" style="stroke:#181818;stroke-width:1.0;stroke-dasharray:7.0,7.0;"/><polygon fill="#181818" points="1050.85,764.68,1041.0413,763.7917,1046.1164,766.2903,1043.6178,771.3655,1050.85,764.68" style="stroke:#181818;stroke-width:1.0;"/><text fill="#000000" font-family="sans-serif" font-size="13" lengthAdjust="spacing" textLength="29" x="808" y="834.5084">uses</text></g><!--link BookingService to JwtUtil--><g id="link_BookingService_JwtUtil"><path codeLine="133" d="M675.92,1056.12 C839.6,1043.39 1029.8981,1028.5753 1110.1281,1022.3353 " fill="none" id="BookingService-to-JwtUtil" style="stroke:#181818;stroke-width:1.0;stroke-dasharray:7.0,7.0;"/><polygon fill="#181818" points="1116.11,1021.87,1106.8269,1018.5799,1111.1251,1022.2577,1107.4473,1026.5558,1116.11,1021.87" style="stroke:#181818;stroke-width:1.0;"/><text fill="#000000" font-family="sans-serif" font-size="13" lengthAdjust="spacing" textLength="29" x="808" y="1038.1184">uses</text></g><!--link BookingService to BookingMapper--><g id="link_BookingService_BookingMapper"><path codeLine="134" d="M487.84,993.81 C572.09,898.14 726.33,745.44 898,684 C1122.29,603.73 1213.78,593.15 1434,684 C1541.59,728.38 1624.8345,836.1226 1665.6845,897.2026 " fill="none" id="BookingService-to-BookingMapper" style="stroke:#181818;stroke-width:1.0;stroke-dasharray:7.0,7.0;"/><polygon fill="#181818" points="1669.02,902.19,1667.3416,892.4852,1666.2404,898.0338,1660.6917,896.9326,1669.02,902.19" style="stroke:#181818;stroke-width:1.0;"/><text fill="#000000" font-family="sans-serif" font-size="13" lengthAdjust="spacing" textLength="29" x="1139.5" y="616.3384">uses</text></g><!--link BookingService to BookingEventPublisherInterface--><g id="link_BookingService_BookingEventPublisherInterface"><path codeLine="135" d="M458.85,993.93 C513.55,886.47 624.5,700.59 777,605 C852.44,557.72 945.7025,539.8892 1023.2925,533.1492 " fill="none" id="BookingService-to-BookingEventPublisherInterface" style="stroke:#181818;stroke-width:1.0;stroke-dasharray:7.0,7.0;"/><polygon fill="#181818" points="1029.27,532.63,1019.9576,529.4239,1024.2888,533.0627,1020.6499,537.3939,1029.27,532.63" style="stroke:#181818;stroke-width:1.0;"/><text fill="#000000" font-family="sans-serif" font-size="13" lengthAdjust="spacing" textLength="29" x="808" y="562.2884">uses</text></g><!--link BookingService to BookingFactory--><g id="link_BookingService_BookingFactory"><path codeLine="136" d="M675.92,1007.31 C784.28,978.16 901.1459,946.7385 994.9459,921.5085 " fill="none" id="BookingService-to-BookingFactory" style="stroke:#181818;stroke-width:1.0;stroke-dasharray:7.0,7.0;"/><polygon fill="#181818" points="1000.74,919.95,991.0099,918.425,995.9116,921.2487,993.0879,926.1504,1000.74,919.95" style="stroke:#181818;stroke-width:1.0;"/><text fill="#000000" font-family="sans-serif" font-size="13" lengthAdjust="spacing" textLength="29" x="808" y="953.5184">uses</text></g><!--link BookingService to BookingServiceInterface--><g id="link_BookingService_BookingServiceInterface"><path codeLine="137" d="M675.92,1090.65 C747.75,1094.76 807.8895,1098.2091 879.7095,1102.3291 " fill="none" id="BookingService-to-BookingServiceInterface" style="stroke:#181818;stroke-width:1.0;stroke-dasharray:7.0,7.0;"/><polygon fill="none" points="897.68,1103.36,880.0532,1096.339,879.3659,1108.3193,897.68,1103.36" style="stroke:#181818;stroke-width:1.0;"/></g><!--link JwtUtil to JwtProperties--><g id="link_JwtUtil_JwtProperties"><path codeLine="147" d="M663.39,222.34 C798.95,221.42 954.0301,220.3611 1053.4001,219.6811 " fill="none" id="JwtUtil-to-JwtProperties" style="stroke:#181818;stroke-width:1.0;stroke-dasharray:7.0,7.0;"/><polygon fill="#181818" points="1059.4,219.64,1050.3728,215.7017,1054.4001,219.6742,1050.4276,223.7015,1059.4,219.64" style="stroke:#181818;stroke-width:1.0;"/><text fill="#000000" font-family="sans-serif" font-size="13" lengthAdjust="spacing" textLength="89" x="778" y="217.5484">Configured by</text></g><!--link JwtUtil to BookingException--><g id="link_JwtUtil_BookingException"><path codeLine="148" d="M609.14,264.95 C718.29,288.64 849.3465,317.0875 958.5065,340.7775 " fill="none" id="JwtUtil-to-BookingException" style="stroke:#181818;stroke-width:1.0;stroke-dasharray:7.0,7.0;"/><polygon fill="#181818" points="964.37,342.05,956.4231,336.2322,959.4837,340.9896,954.7264,344.0503,964.37,342.05" style="stroke:#181818;stroke-width:1.0;"/><text fill="#000000" font-family="sans-serif" font-size="13" lengthAdjust="spacing" textLength="43" x="801" y="300.0684">throws</text></g><!--link BookingController to BookingServiceInterface--><g id="link_BookingController_BookingServiceInterface"><path codeLine="153" d="M640.27,1232.79 C745.52,1209.23 864.235,1182.6509 964.235,1160.2609 " fill="none" id="BookingController-to-BookingServiceInterface" style="stroke:#181818;stroke-width:1.0;stroke-dasharray:7.0,7.0;"/><polygon fill="#181818" points="970.09,1158.95,960.4335,1157.0131,965.2108,1160.0425,962.1814,1164.8198,970.09,1158.95" style="stroke:#181818;stroke-width:1.0;"/><text fill="#000000" font-family="sans-serif" font-size="13" lengthAdjust="spacing" textLength="29" x="808" y="1179.4584">uses</text></g><!--link BookingController to BookingDTO--><g id="link_BookingController_BookingDTO"><path codeLine="154" d="M745.23,1260.9 C1109.04,1237.25 1670.7726,1200.7492 1891.6926,1186.3892 " fill="none" id="BookingController-to-BookingDTO" style="stroke:#181818;stroke-width:1.0;"/><polygon fill="#181818" points="1897.68,1186,1888.4395,1182.5922,1892.6905,1186.3243,1888.9584,1190.5754,1897.68,1186" style="stroke:#181818;stroke-width:1.0;"/><text fill="#000000" font-family="sans-serif" font-size="13" lengthAdjust="spacing" textLength="82" x="1443" y="1206.9284">input/output</text></g><!--link BookingMapper to BookingDTO--><g id="link_BookingMapper_BookingDTO"><path codeLine="155" d="M1746.95,983.74 C1791.37,1019.61 1852.1921,1068.7203 1904.0021,1110.5603 " fill="none" id="BookingMapper-to-BookingDTO" style="stroke:#181818;stroke-width:1.0;"/><polygon fill="#181818" points="1908.67,1114.33,1904.1812,1105.5635,1904.7801,1111.1886,1899.155,1111.7875,1908.67,1114.33" style="stroke:#181818;stroke-width:1.0;"/></g><!--link BookingMapper to Booking--><g id="link_BookingMapper_Booking"><path codeLine="156" d="M1833.37,911.76 C1855.19,906.77 1871.4504,903.0652 1891.9104,898.3952 " fill="none" id="BookingMapper-to-Booking" style="stroke:#181818;stroke-width:1.0;"/><polygon fill="#181818" points="1897.76,897.06,1888.0956,895.163,1892.8854,898.1726,1889.8758,902.9625,1897.76,897.06" style="stroke:#181818;stroke-width:1.0;"/></g><!--link BookingFactory to Booking--><g id="link_BookingFactory_Booking"><path codeLine="157" d="M1366.25,878.24 C1537.4,877.63 1764.31,876.8117 1891.59,876.3517 " fill="none" id="BookingFactory-to-Booking" style="stroke:#181818;stroke-width:1.0;"/><polygon fill="#181818" points="1897.59,876.33,1888.5756,872.3626,1892.59,876.3481,1888.6045,880.3625,1897.59,876.33" style="stroke:#181818;stroke-width:1.0;"/></g><!--link BookingServiceApplication to BookingService--><g id="link_BookingServiceApplication_BookingService"><path codeLine="162" d="M526.62,1522.93 C679.67,1560.33 952.1415,1626.9155 1079.8415,1658.1255 " fill="none" id="BookingServiceApplication-to-BookingService" style="stroke:#181818;stroke-width:1.0;stroke-dasharray:7.0,7.0;"/><polygon fill="#181818" points="1085.67,1659.55,1077.877,1653.5276,1080.813,1658.3629,1075.9777,1661.2989,1085.67,1659.55" style="stroke:#181818;stroke-width:1.0;"/></g><!--SRC=[rLXBSzis4BxhL-pe8ceYCSrLusf6VZIsazIQo3vrUe2ebOIQ8ZW0P5jf_T-x840IVDcETMbr4ObTxEFR1nOSm3ckUOAWz256rLFtF4cPP3k8OgRKJ6l9btkDLv585lm7mY-z6DSQj039DriDAounqbmalTu0VdtfH_JvxEpBxFF512An2pMotQTFuL88qhbHA1zuXAyAILbqppO8_KuHVVYxrmDhFvnQqiAIPcaQyuWPSua9wFS1TemdmOBSJ3P__0bCRjIGACz6n036h_uojharolYLhFc6rd8pxO9JPaswVjHpALAKcgDo580nA8maQfY0DSQjVu0DwaL62ePDeYg8jUt3ZENvA5Uq576CikgEMwouT2bsU5Od6VEsHAYR_UnjTE5fsJk6PILq9ACQowj4ermpIXaFACUY0hRNsqjaAv9O849Ftr6b8b5uaMYk3oVVM7fYv6nGZdBnvxStqsaXap1b6XqfS2QLjX3p2DwconD_R6XMMdWneRTAC4f5JJ2lLcIOyxYWxQbmCa8bjuezvmG04R-AYCNckQ2lK3CUgzQCFStrPT6lQXn0SAEtX1RnKGpLHsN_GUmuFQnWBIGi9JuGR4UdCMReUt3PXJR4_gTm7G_H0s7Y8sJU7HWyhx8Sf0j3dE-NCLTaKr64NisdbfWnDYjcsDK3geBV9QzTKXZ-Ctt5-YEmUuempOu_3xzyhIt9Bcf4us6T5EnGAIEfsipVn3g2Y566qlljLef7jeon2VddM2nPN0YvPCcgrhUpbOOoV2g1BrPRUfqrPUhfxT0OXjCcC1EdNhq_B3kMffM3oovq9VKtdshyry9w4fZcwdVxOVdcCPzh4RY-KYPcPT-nDKhMQY7zFkPMsdBijmh9wqtEpqdLxux3hkxwgDxvwbXKYZ2tmOjmePta715RYQbGl8P6kTWLu-zr3kCnZRwhqyDTvbVGujvNhdH-SllfF83VXSP9YsnyqfYi52nI8mFe161mFPyDQEvBMScN2ntbpNxwVa3oqRb4mwrqGL6Ve3n0w8mnQ3Z6ItAVZ0t-UjItuXwJ2ZPTmzERqwbLQal9jC_opUpsej0IcOARrDvf7XFFjNtwgIePs-EnF5uchvyj5UbvOKngbV8V3q4DVA-iAx2xqcxblow0VuchercynDiraxnfSncFRkPoW6YvVBopQlSsy_AIDQ_rQ-9TkMOIw1wDbVQwzmNBXA6M8ya9ryLQGsgVuEH4cw6WEOnC_UQMQtOnyowh4-YVPHVQlQGnVNdeD_XR3lE-rTd_QQWoaCSEC1enukpYhhOyDM5gNXqz_OqELqItkMqydfexLEZTcyXedgHx_L7iDVtrotqkBPjxMbdiJ12MXsGjvrfvEaObmrj7j_TilhhSPCyifZ1lnIFTCr8wWJ293h2MOfTzu03cVVcWBa3tYUAGYDa1PTZh_b9YS7NCOPMhzoy0]--></g></svg>